<mxfile host="Electron" modified="2024-04-26T18:32:54.905Z" agent="Mozilla/5.0 (Windows NT 10.0; Win64; x64) AppleWebKit/537.36 (KHTML, like Gecko) draw.io/24.0.4 Chrome/120.0.6099.109 Electron/28.1.0 Safari/537.36" etag="it3Xyb8_rPWJyEAT526G" version="24.0.4" type="device">
  <diagram name="Pagina-1" id="Qq2GFcnKOpbUPyH8cYHT">
    <mxGraphModel dx="880" dy="-22848" grid="1" gridSize="10" guides="1" tooltips="1" connect="1" arrows="1" fold="1" page="1" pageScale="1" pageWidth="827" pageHeight="1169" math="0" shadow="0">
      <root>
        <mxCell id="0" />
        <mxCell id="1" parent="0" />
        <mxCell id="eheu98BG1LtJeOT-n8C_-1" value="Controllers" style="shape=cube;whiteSpace=wrap;html=1;boundedLbl=1;backgroundOutline=1;darkOpacity=0.05;darkOpacity2=0.1;" parent="1" vertex="1">
          <mxGeometry x="570" y="23970" width="90" height="80" as="geometry" />
        </mxCell>
        <mxCell id="eheu98BG1LtJeOT-n8C_-2" value="View&lt;br&gt;REST&lt;br&gt;Json" style="shape=cube;whiteSpace=wrap;html=1;boundedLbl=1;backgroundOutline=1;darkOpacity=0.05;darkOpacity2=0.1;" parent="1" vertex="1">
          <mxGeometry x="367.5" y="23830" width="120" height="80" as="geometry" />
        </mxCell>
        <mxCell id="eheu98BG1LtJeOT-n8C_-3" value="" style="shape=flexArrow;endArrow=classic;startArrow=classic;html=1;rounded=0;" parent="1" edge="1">
          <mxGeometry width="100" height="100" relative="1" as="geometry">
            <mxPoint x="140" y="24060" as="sourcePoint" />
            <mxPoint x="140" y="23790" as="targetPoint" />
          </mxGeometry>
        </mxCell>
        <mxCell id="eheu98BG1LtJeOT-n8C_-4" value="REST" style="text;html=1;align=center;verticalAlign=middle;whiteSpace=wrap;rounded=0;rotation=-90;" parent="1" vertex="1">
          <mxGeometry x="90" y="23910" width="60" height="30" as="geometry" />
        </mxCell>
        <mxCell id="eheu98BG1LtJeOT-n8C_-5" style="edgeStyle=orthogonalEdgeStyle;rounded=0;orthogonalLoop=1;jettySize=auto;html=1;" parent="1" source="eheu98BG1LtJeOT-n8C_-7" target="eheu98BG1LtJeOT-n8C_-9" edge="1">
          <mxGeometry relative="1" as="geometry" />
        </mxCell>
        <mxCell id="eheu98BG1LtJeOT-n8C_-6" style="edgeStyle=orthogonalEdgeStyle;rounded=0;orthogonalLoop=1;jettySize=auto;html=1;" parent="1" source="eheu98BG1LtJeOT-n8C_-7" target="eheu98BG1LtJeOT-n8C_-10" edge="1">
          <mxGeometry relative="1" as="geometry" />
        </mxCell>
        <mxCell id="eheu98BG1LtJeOT-n8C_-7" value="Repository" style="shape=cube;whiteSpace=wrap;html=1;boundedLbl=1;backgroundOutline=1;darkOpacity=0.05;darkOpacity2=0.1;" parent="1" vertex="1">
          <mxGeometry x="283.25" y="23970" width="86.75" height="80" as="geometry" />
        </mxCell>
        <mxCell id="eheu98BG1LtJeOT-n8C_-8" value="Models" style="shape=cube;whiteSpace=wrap;html=1;boundedLbl=1;backgroundOutline=1;darkOpacity=0.05;darkOpacity2=0.1;" parent="1" vertex="1">
          <mxGeometry x="220" y="23970" width="82.8" height="80" as="geometry" />
        </mxCell>
        <mxCell id="eheu98BG1LtJeOT-n8C_-9" value="DB" style="shape=cylinder3;whiteSpace=wrap;html=1;boundedLbl=1;backgroundOutline=1;size=15;" parent="1" vertex="1">
          <mxGeometry x="296.63" y="24105" width="60" height="80" as="geometry" />
        </mxCell>
        <mxCell id="eheu98BG1LtJeOT-n8C_-10" value="Services" style="shape=cube;whiteSpace=wrap;html=1;boundedLbl=1;backgroundOutline=1;darkOpacity=0.05;darkOpacity2=0.1;" parent="1" vertex="1">
          <mxGeometry x="510" y="23970" width="80" height="80" as="geometry" />
        </mxCell>
        <mxCell id="eheu98BG1LtJeOT-n8C_-11" style="edgeStyle=orthogonalEdgeStyle;rounded=0;orthogonalLoop=1;jettySize=auto;html=1;entryX=0.971;entryY=0.504;entryDx=0;entryDy=0;entryPerimeter=0;" parent="1" source="eheu98BG1LtJeOT-n8C_-10" target="eheu98BG1LtJeOT-n8C_-7" edge="1">
          <mxGeometry relative="1" as="geometry" />
        </mxCell>
        <mxCell id="eheu98BG1LtJeOT-n8C_-12" style="edgeStyle=orthogonalEdgeStyle;rounded=0;orthogonalLoop=1;jettySize=auto;html=1;entryX=0;entryY=0;entryDx=120;entryDy=50;entryPerimeter=0;" parent="1" source="eheu98BG1LtJeOT-n8C_-1" target="eheu98BG1LtJeOT-n8C_-2" edge="1">
          <mxGeometry relative="1" as="geometry">
            <Array as="points">
              <mxPoint x="610" y="23880" />
            </Array>
          </mxGeometry>
        </mxCell>
        <mxCell id="eheu98BG1LtJeOT-n8C_-13" style="edgeStyle=orthogonalEdgeStyle;rounded=0;orthogonalLoop=1;jettySize=auto;html=1;entryX=0.454;entryY=0.021;entryDx=0;entryDy=0;entryPerimeter=0;" parent="1" source="eheu98BG1LtJeOT-n8C_-2" target="eheu98BG1LtJeOT-n8C_-1" edge="1">
          <mxGeometry relative="1" as="geometry">
            <Array as="points">
              <mxPoint x="611" y="23880" />
            </Array>
          </mxGeometry>
        </mxCell>
        <mxCell id="eheu98BG1LtJeOT-n8C_-14" style="edgeStyle=orthogonalEdgeStyle;rounded=0;orthogonalLoop=1;jettySize=auto;html=1;" parent="1" source="eheu98BG1LtJeOT-n8C_-15" target="eheu98BG1LtJeOT-n8C_-17" edge="1">
          <mxGeometry relative="1" as="geometry" />
        </mxCell>
        <mxCell id="eheu98BG1LtJeOT-n8C_-15" value="Client" style="shape=umlActor;verticalLabelPosition=bottom;verticalAlign=top;html=1;outlineConnect=0;" parent="1" vertex="1">
          <mxGeometry x="230" y="23430" width="30" height="60" as="geometry" />
        </mxCell>
        <mxCell id="OK5-4SF3TisruEu_Hq8F-6" style="edgeStyle=orthogonalEdgeStyle;rounded=0;orthogonalLoop=1;jettySize=auto;html=1;" edge="1" parent="1" source="eheu98BG1LtJeOT-n8C_-17" target="eheu98BG1LtJeOT-n8C_-18">
          <mxGeometry relative="1" as="geometry" />
        </mxCell>
        <mxCell id="eheu98BG1LtJeOT-n8C_-17" value="Views&lt;div&gt;HTML&lt;/div&gt;" style="shape=cube;whiteSpace=wrap;html=1;boundedLbl=1;backgroundOutline=1;darkOpacity=0.05;darkOpacity2=0.1;" parent="1" vertex="1">
          <mxGeometry x="311" y="23510" width="120" height="80" as="geometry" />
        </mxCell>
        <mxCell id="eheu98BG1LtJeOT-n8C_-18" value="CONTROLLERS" style="shape=cube;whiteSpace=wrap;html=1;boundedLbl=1;backgroundOutline=1;darkOpacity=0.05;darkOpacity2=0.1;" parent="1" vertex="1">
          <mxGeometry x="470" y="23650" width="120" height="80" as="geometry" />
        </mxCell>
        <mxCell id="eheu98BG1LtJeOT-n8C_-19" value="SERVICES&lt;br&gt;REPOS" style="shape=cube;whiteSpace=wrap;html=1;boundedLbl=1;backgroundOutline=1;darkOpacity=0.05;darkOpacity2=0.1;" parent="1" vertex="1">
          <mxGeometry x="167" y="23650" width="120" height="80" as="geometry" />
        </mxCell>
        <mxCell id="eheu98BG1LtJeOT-n8C_-20" value="MODELS" style="shape=cube;whiteSpace=wrap;html=1;boundedLbl=1;backgroundOutline=1;darkOpacity=0.05;darkOpacity2=0.1;fillColor=#fff2cc;strokeColor=#d6b656;" parent="1" vertex="1">
          <mxGeometry x="97" y="23650" width="89" height="80" as="geometry" />
        </mxCell>
        <mxCell id="eheu98BG1LtJeOT-n8C_-21" style="edgeStyle=orthogonalEdgeStyle;rounded=0;orthogonalLoop=1;jettySize=auto;html=1;entryX=1.03;entryY=0.501;entryDx=0;entryDy=0;entryPerimeter=0;" parent="1" source="eheu98BG1LtJeOT-n8C_-18" target="eheu98BG1LtJeOT-n8C_-19" edge="1">
          <mxGeometry relative="1" as="geometry" />
        </mxCell>
        <mxCell id="eheu98BG1LtJeOT-n8C_-22" style="edgeStyle=orthogonalEdgeStyle;rounded=0;orthogonalLoop=1;jettySize=auto;html=1;entryX=0;entryY=0;entryDx=50;entryDy=0;entryPerimeter=0;" parent="1" source="eheu98BG1LtJeOT-n8C_-19" target="eheu98BG1LtJeOT-n8C_-2" edge="1">
          <mxGeometry relative="1" as="geometry">
            <Array as="points">
              <mxPoint x="227" y="23770" />
              <mxPoint x="417" y="23770" />
            </Array>
          </mxGeometry>
        </mxCell>
        <mxCell id="eheu98BG1LtJeOT-n8C_-23" value="DTO" style="shape=note;whiteSpace=wrap;html=1;backgroundOutline=1;darkOpacity=0.05;fillColor=#fff2cc;strokeColor=#d6b656;" parent="1" vertex="1">
          <mxGeometry x="559" y="24040" width="78" height="40" as="geometry" />
        </mxCell>
        <mxCell id="eheu98BG1LtJeOT-n8C_-24" value="" style="shape=flexArrow;endArrow=classic;startArrow=classic;html=1;rounded=0;fillColor=#dae8fc;strokeColor=#6c8ebf;" parent="1" edge="1">
          <mxGeometry width="100" height="100" relative="1" as="geometry">
            <mxPoint x="690" y="23750" as="sourcePoint" />
            <mxPoint x="690" y="23480" as="targetPoint" />
          </mxGeometry>
        </mxCell>
        <mxCell id="eheu98BG1LtJeOT-n8C_-25" value="ANGULAR" style="text;html=1;align=center;verticalAlign=middle;whiteSpace=wrap;rounded=0;rotation=-90;" parent="1" vertex="1">
          <mxGeometry x="640" y="23600" width="60" height="30" as="geometry" />
        </mxCell>
        <mxCell id="eheu98BG1LtJeOT-n8C_-27" value="" style="endArrow=none;dashed=1;html=1;dashPattern=1 3;strokeWidth=2;rounded=0;" parent="1" edge="1">
          <mxGeometry width="50" height="50" relative="1" as="geometry">
            <mxPoint x="10" y="23760" as="sourcePoint" />
            <mxPoint x="820" y="23760" as="targetPoint" />
          </mxGeometry>
        </mxCell>
      </root>
    </mxGraphModel>
  </diagram>
</mxfile>
